<svg xmlns="http://www.w3.org/2000/svg" viewBox="0 0 64 64" fill="none" stroke="currentColor" stroke-width="0.9" stroke-linecap="round" stroke-linejoin="round" aria-hidden="true">
  
  <circle cx="32" cy="32" r="26"></circle>
  
  <circle cx="32" cy="32" r="7"></circle>
  
  <circle cx="32" cy="14" r="8.18" opacity="0.8"></circle>
  <circle cx="44.728" cy="19.272" r="8.18" opacity="0.8"></circle>
  <circle cx="50" cy="32" r="8.18" opacity="0.8"></circle>
  <circle cx="44.728" cy="44.728" r="8.18" opacity="0.8"></circle>
  <circle cx="32" cy="50" r="8.18" opacity="0.8"></circle>
  <circle cx="19.272" cy="44.728" r="8.18" opacity="0.8"></circle>
  <circle cx="14" cy="32" r="8.18" opacity="0.8"></circle>
  <circle cx="19.272" cy="19.272" r="8.18" opacity="0.8"></circle>
  
  <line x1="32" y1="39.5" x2="32" y2="56.5" opacity="0.45"></line>
  <line x1="34.871" y1="38.929" x2="50.376" y2="45.358" opacity="0.45"></line>
  <line x1="37.303" y1="37.303" x2="45.358" y2="45.358" opacity="0.45"></line>
  <line x1="38.929" y1="34.871" x2="45.358" y2="50.376" opacity="0.45"></line>
  <line x1="39.5" y1="32" x2="56.5" y2="32" opacity="0.45"></line>
  <line x1="38.929" y1="29.129" x2="50.376" y2="18.642" opacity="0.45"></line>
  <line x1="37.303" y1="26.697" x2="45.358" y2="18.642" opacity="0.45"></line>
  <line x1="34.871" y1="25.071" x2="45.358" y2="13.624" opacity="0.45"></line>
  <line x1="32" y1="24.5" x2="32" y2="7.5" opacity="0.45"></line>
  <line x1="29.129" y1="25.071" x2="18.642" y2="13.624" opacity="0.45"></line>
  <line x1="26.697" y1="26.697" x2="18.642" y2="18.642" opacity="0.45"></line>
  <line x1="25.071" y1="29.129" x2="13.624" y2="18.642" opacity="0.45"></line>
  <line x1="24.5" y1="32" x2="7.5" y2="32" opacity="0.45"></line>
  <line x1="25.071" y1="34.871" x2="13.624" y2="45.358" opacity="0.45"></line>
  <line x1="26.697" y1="37.303" x2="18.642" y2="45.358" opacity="0.45"></line>
  <line x1="29.129" y1="38.929" x2="18.642" y2="50.376" opacity="0.45"></line>
  
  <circle cx="32" cy="32" r="1.2" fill="currentColor" stroke="none"></circle>
</svg>